ik_full
version=1
nRows=26
nColumns=40
inDegrees=no
endheader
time	pelvis_tilt	pelvis_list	pelvis_rotation	pelvis_tx	pelvis_ty	pelvis_tz	hip_flexion_r	hip_adduction_r	hip_rotation_r	knee_angle_r	ankle_angle_r	subtalar_angle_r	mtp_angle_r	hip_flexion_l	hip_adduction_l	hip_rotation_l	knee_angle_l	ankle_angle_l	subtalar_angle_l	mtp_angle_l	lumbar_extension	lumbar_bending	lumbar_rotation	arm_flex_r	arm_add_r	arm_rot_r	elbow_flex_r	pro_sup_r	wrist_flex_r	wrist_dev_r	arm_flex_l	arm_add_l	arm_rot_l	elbow_flex_l	pro_sup_l	wrist_flex_l	wrist_dev_l	knee_angle_r_beta	knee_angle_l_beta
0.65500000	0.12601703	0.23649294	-0.12560620	0.73181020	0.88721161	-0.24400804	-0.48377184	-0.30519325	-0.34470102	0.45566811	0.04547851	0.01861229	-0.00040485	0.27211017	0.27066378	-0.19380204	0.23969213	-0.06085860	0.02034670	-0.00088755	-0.16181083	-0.26562840	0.16811940	-0.01433407	-0.19690918	-0.13663182	0.86336433	1.39700234	-0.00009351	0.00046255	-0.29200092	-0.16741842	-0.26070883	0.35245050	1.48150058	-0.00013359	0.00030875	0.45566811	0.23969213
0.66492424	0.12408840	0.24981069	-0.11982434	0.74629722	0.88850562	-0.24486187	-0.45966009	-0.32886802	-0.34313394	0.51865253	-0.00762327	0.01861229	-0.00040485	0.26792809	0.28772358	-0.18702160	0.25885308	-0.04609403	0.02034670	-0.00088755	-0.15663959	-0.27903975	0.15537887	-0.02656559	-0.18799678	-0.13312056	0.84014852	1.39614270	-0.00009351	0.00046255	-0.28617318	-0.16803507	-0.26983137	0.36021100	1.48154521	-0.00013359	0.00030875	0.51865253	0.25885308
0.67484848	0.11916417	0.26050374	-0.11395087	0.76056546	0.88979989	-0.24573658	-0.42662824	-0.35021941	-0.33258815	0.58767704	-0.06535702	0.01861229	-0.00040485	0.26383530	0.30236546	-0.17867060	0.27273442	-0.03140355	0.02034670	-0.00088755	-0.14842345	-0.28902586	0.14296295	-0.03888718	-0.18055619	-0.12694331	0.81582122	1.39457356	-0.00009351	0.00046255	-0.28026614	-0.16776111	-0.27862441	0.36966891	1.48151784	-0.00013359	0.00030875	0.58767704	0.27273442
0.68477273	0.11154723	0.26876817	-0.10897415	0.77455688	0.89104609	-0.24654180	-0.38487298	-0.36911057	-0.31307995	0.66090328	-0.12548712	0.01861229	-0.00040485	0.25960511	0.31448778	-0.17053564	0.28065214	-0.01784282	0.02034670	-0.00088755	-0.13732654	-0.29596123	0.13212517	-0.05129423	-0.17479353	-0.11837135	0.79120314	1.39207205	-0.00009351	0.00046255	-0.27400129	-0.16693557	-0.28511644	0.38025264	1.48152075	-0.00013359	0.00030875	0.66090328	0.28065214
0.69469697	0.10269551	0.27511810	-0.10559821	0.78825706	0.89227678	-0.24720303	-0.33703021	-0.38557581	-0.28677127	0.73555653	-0.18425560	0.01861229	-0.00040485	0.25392906	0.32451556	-0.16362260	0.28259682	-0.00571693	0.02034670	-0.00088755	-0.12489027	-0.30062185	0.12315763	-0.06363656	-0.17067714	-0.10780887	0.76713644	1.38893589	-0.00009351	0.00046255	-0.26719241	-0.16589134	-0.28849467	0.39183656	1.48152784	-0.00013359	0.00030875	0.73555653	0.28259682
0.70462121	0.09357235	0.27997359	-0.10420643	0.80165002	0.89350181	-0.24765690	-0.28516063	-0.39947412	-0.25561195	0.80927573	-0.23671497	0.01861229	-0.00040485	0.24640332	0.33270717	-0.15852797	0.27945776	0.00519508	0.02034670	-0.00088755	-0.11215673	-0.30362720	0.11578731	-0.07550990	-0.16822462	-0.09459607	0.74380404	1.38568635	-0.00009351	0.00046255	-0.25994186	-0.16481356	-0.28922334	0.40461842	1.48153308	-0.00013359	0.00030875	0.80927573	0.27945776
0.71454545	0.08303925	0.28396135	-0.10486802	0.81470334	0.89458099	-0.24784929	-0.22811439	-0.41101509	-0.22031163	0.88149855	-0.27751311	0.01861229	-0.00040485	0.23953875	0.33919575	-0.15628010	0.27312778	0.01535508	0.02034670	-0.00088755	-0.09767665	-0.30571986	0.10922852	-0.08594976	-0.16770313	-0.07518915	0.71993113	1.38211312	-0.00009351	0.00046255	-0.25314518	-0.16364961	-0.28947326	0.41923865	1.48152330	-0.00013359	0.00030875	0.88149855	0.27312778
0.72446970	0.07124476	0.28737355	-0.10707182	0.82740116	0.89550431	-0.24778530	-0.16694167	-0.42017190	-0.18279944	0.95126714	-0.30174757	0.01861229	-0.00040485	0.23393193	0.34423393	-0.15645325	0.26516054	0.02509651	0.02034670	-0.00088755	-0.08178716	-0.30730268	0.10214340	-0.09430311	-0.16909934	-0.04764519	0.69511193	1.37731376	-0.00009351	0.00046255	-0.24723955	-0.16246551	-0.29082189	0.43618718	1.48151779	-0.00013359	0.00030875	0.95126714	0.26516054
0.73439394	0.06127725	0.28976633	-0.11000212	0.83975892	0.89650880	-0.24752910	-0.10728782	-0.42635533	-0.14659051	1.01605211	-0.30698261	0.01861229	-0.00040485	0.22588449	0.34806828	-0.15669335	0.25595003	0.03449276	0.02034670	-0.00088755	-0.06860235	-0.30806188	0.09356762	-0.10107878	-0.17178008	-0.01522568	0.67117079	1.37134842	-0.00009351	0.00046255	-0.24119198	-0.16177711	-0.29180528	0.45489391	1.48159284	-0.00013359	0.00030875	1.01605211	0.25595003
0.74431818	0.05478179	0.29075462	-0.11293063	0.85178829	0.89771137	-0.24715048	-0.05248064	-0.42932653	-0.11382894	1.07427322	-0.29434599	0.01861229	-0.00040485	0.21338421	0.35075789	-0.15531577	0.24588849	0.04355806	0.02034670	-0.00088755	-0.06042519	-0.30767670	0.08316866	-0.10700148	-0.17507335	0.01857847	0.64938910	1.36562571	-0.00009351	0.00046255	-0.23409908	-0.16208353	-0.29072091	0.47447546	1.48150151	-0.00013359	0.00030875	1.07427322	0.24588849
0.75424242	0.05041772	0.29034565	-0.11503590	0.86351278	0.89903971	-0.24670749	-0.00138430	-0.42931640	-0.08493200	1.12591165	-0.26741856	0.01861229	-0.00040485	0.19824940	0.35221554	-0.15182931	0.23593935	0.05238582	0.02034670	-0.00088755	-0.05586333	-0.30610198	0.07046863	-0.11225028	-0.17860934	0.05310238	0.62935486	1.36121192	-0.00009351	0.00046255	-0.22619007	-0.16345381	-0.28820771	0.49467064	1.48069936	-0.00013359	0.00030875	1.12591165	0.23593935
0.76416667	0.04679196	0.28853422	-0.11557407	0.87496168	0.90041216	-0.24625711	0.04721529	-0.42649332	-0.06013326	1.17082167	-0.23105998	0.01861229	-0.00040485	0.18223702	0.35233209	-0.14582906	0.22678187	0.06105869	0.02034670	-0.00088755	-0.05340977	-0.30321964	0.05505860	-0.11703502	-0.18206407	0.08743559	0.61071384	1.35841823	-0.00009351	0.00046255	-0.21780402	-0.16580041	-0.28531366	0.51529510	1.47909972	-0.00013359	0.00030875	1.17082167	0.22678187
0.77409091	0.04345504	0.28527106	-0.11434508	0.88617526	0.90180753	-0.24583214	0.09348357	-0.42100702	-0.03941983	1.20853689	-0.19037800	0.01861229	-0.00040485	0.16582287	0.35104552	-0.13720646	0.21846577	0.06958372	0.02034670	-0.00088755	-0.05251487	-0.29886015	0.03722005	-0.12185429	-0.18513224	0.11937106	0.59364900	1.35759358	-0.00009351	0.00046255	-0.20892328	-0.16907324	-0.28214755	0.53591983	1.47698304	-0.00013359	0.00030875	1.20853689	0.21846577
0.78401515	0.04010633	0.28064648	-0.11165997	0.89719460	0.90319728	-0.24543479	0.13778027	-0.41315877	-0.02216506	1.23889742	-0.14936472	0.01861229	-0.00040485	0.14933289	0.34838567	-0.12647881	0.21074829	0.07792673	0.02034670	-0.00088755	-0.05259675	-0.29300960	0.01770339	-0.12714972	-0.18769074	0.14696882	0.57826226	1.35894216	-0.00009351	0.00046255	-0.19959512	-0.17314586	-0.27880564	0.55636259	1.47445655	-0.00013359	0.00030875	1.23889742	0.21074829
0.79393939	0.03655579	0.27484041	-0.10810547	0.90805887	0.90454757	-0.24504478	0.18055430	-0.40328081	-0.00743863	1.26202265	-0.11022449	0.01861229	-0.00040485	0.13299150	0.34445301	-0.11449213	0.20326217	0.08606167	0.02034670	-0.00088755	-0.05308686	-0.28578750	-0.00260136	-0.13318018	-0.18979400	0.16902346	0.56454295	1.36202937	-0.00009351	0.00046255	-0.19000693	-0.17780454	-0.27574401	0.57681646	1.47176035	-0.00013359	0.00030875	1.26202265	0.20326217
0.80386364	0.03295047	0.26796602	-0.10438895	0.91880097	0.90584402	-0.24463244	0.22187596	-0.39157250	0.00565822	1.27810074	-0.07363603	0.01861229	-0.00040485	0.11663284	0.33931196	-0.10213831	0.19560675	0.09401491	0.02034670	-0.00088755	-0.05381748	-0.27727670	-0.02274826	-0.14006489	-0.19161635	0.18481780	0.55254396	1.36569923	-0.00009351	0.00046255	-0.18028044	-0.18279983	-0.27342591	0.59761371	1.46942536	-0.00013359	0.00030875	1.27810074	0.19560675
0.81378788	0.02964152	0.26008504	-0.10116150	0.92944966	0.90708771	-0.24416511	0.26148072	-0.37811365	0.01782695	1.28733120	-0.03937020	0.01861229	-0.00040485	0.09987175	0.33298415	-0.09019525	0.18749106	0.10185511	0.02034670	-0.00088755	-0.05491374	-0.26754029	-0.04181404	-0.14785644	-0.19332539	0.19401884	0.54233407	1.36836317	-0.00009351	0.00046255	-0.17041094	-0.18793917	-0.27207626	0.61901237	1.46804730	-0.00013359	0.00030875	1.28733120	0.18749106
0.82371212	0.02680591	0.25137937	-0.09883141	0.94003876	0.90827067	-0.24359925	0.29916471	-0.36299803	0.02954440	1.28994855	-0.00692891	0.01861229	-0.00040485	0.08257141	0.32555948	-0.07923724	0.17887761	0.10967475	0.02034670	-0.00088755	-0.05632143	-0.25685356	-0.05917391	-0.15648995	-0.19494662	0.19717449	0.53362943	1.36876874	-0.00009351	0.00046255	-0.16048940	-0.19317209	-0.27194139	0.64121026	1.46800795	-0.00013359	0.00030875	1.28994855	0.17887761
0.83363636	0.02440619	0.24203127	-0.09755143	0.95058932	0.90937440	-0.24290058	0.33485885	-0.34629307	0.04105616	1.28617022	0.02388646	0.01861229	-0.00040485	0.06496031	0.31712600	-0.06958791	0.17006641	0.11761934	0.02034670	-0.00088755	-0.05785750	-0.24549892	-0.07470436	-0.16559681	-0.19651344	0.19598046	0.52566286	1.36660191	-0.00009351	0.00046255	-0.15068942	-0.19841838	-0.27354429	0.66434962	1.46912091	-0.00013359	0.00030875	1.28617022	0.17006641
0.84356061	0.02247492	0.23212246	-0.09734688	0.96109422	0.91039091	-0.24207484	0.36837086	-0.32810593	0.05239567	1.27611203	0.05270349	0.01861229	-0.00040485	0.04729408	0.30778270	-0.06131905	0.16155238	0.12577630	0.02034670	-0.00088755	-0.05962114	-0.23353833	-0.08842043	-0.17471622	-0.19815139	0.19203457	0.51771594	1.36252472	-0.00009351	0.00046255	-0.14086030	-0.20353612	-0.27690407	0.68812672	1.47096968	-0.00013359	0.00030875	1.27611203	0.16155238
0.85348485	0.02097234	0.22189834	-0.09809114	0.97154502	0.91131070	-0.24114903	0.39957216	-0.30885315	0.06345155	1.25985575	0.07883359	0.01861229	-0.00040485	0.02988949	0.29785251	-0.05432935	0.15382853	0.13409824	0.02034670	-0.00088755	-0.06166979	-0.22118463	-0.10032052	-0.18357520	-0.19987620	0.18621046	0.50935796	1.35774767	-0.00009351	0.00046255	-0.13068407	-0.20853756	-0.28136376	0.71184085	1.47353639	-0.00013359	0.00030875	1.25985575	0.15382853
0.86340909	0.01963243	0.21164247	-0.09945518	0.98194972	0.91211196	-0.24014433	0.42848705	-0.28905713	0.07390226	1.23746919	0.10173366	0.01861229	-0.00040485	0.01320003	0.28765804	-0.04844533	0.14732496	0.14265287	0.02034670	-0.00088755	-0.06375193	-0.20875935	-0.11080895	-0.19185977	-0.20164268	0.17952524	0.50023202	1.35319864	-0.00009351	0.00046255	-0.12021155	-0.21343610	-0.28686265	0.73512413	1.47684206	-0.00013359	0.00030875	1.23746919	0.14732496
0.87333333	0.01819766	0.20144530	-0.10101764	0.99232337	0.91277717	-0.23908634	0.45504777	-0.26916059	0.08317195	1.20897823	0.12117174	0.01861229	-0.00040485	-0.00247534	0.27732012	-0.04345373	0.14230132	0.15162638	0.02034670	-0.00088755	-0.06562933	-0.19637953	-0.12059287	-0.19918498	-0.20349766	0.17305247	0.49015425	1.34924488	-0.00009351	0.00046255	-0.10975325	-0.21812450	-0.29382042	0.75811357	1.47994851	-0.00013359	0.00030875	1.20897823	0.14230132
0.88325758	0.01647865	0.19148360	-0.10233856	1.00268482	0.91329242	-0.23801737	0.47921658	-0.24986734	0.09055975	1.17448097	0.13716944	0.01861229	-0.00040485	-0.01702743	0.26707624	-0.03906006	0.13874278	0.16096559	0.02034670	-0.00088755	-0.06712165	-0.18421523	-0.13018611	-0.20541229	-0.20547517	0.16722325	0.47920905	1.34620656	-0.00009351	0.00046255	-0.09952209	-0.22263097	-0.30188248	0.78095893	1.48152328	-0.00013359	0.00030875	1.17448097	0.13874278
0.89318182	0.01426642	0.18208140	-0.10300442	1.01305634	0.91363865	-0.23698514	0.50113611	-0.23209356	0.09535350	1.13420165	0.15003045	0.01861229	-0.00040485	-0.03038548	0.25731044	-0.03491668	0.13641932	0.17039878	0.02034670	-0.00088755	-0.06798291	-0.17257590	-0.13988355	-0.21063254	-0.20754623	0.16201998	0.46755450	1.34445258	-0.00009351	0.00046255	-0.08964926	-0.22710285	-0.31023065	0.80358966	1.48166974	-0.00013359	0.00030875	1.13420165	0.13641932
0.90310606	0.01138528	0.17349484	-0.10276209	1.02345795	0.91379622	-0.23602392	0.52101142	-0.21655226	0.09696163	1.08843950	0.16032356	0.01861229	-0.00040485	-0.04254059	0.24831416	-0.03077205	0.13497553	0.17967508	0.02034670	-0.00088755	-0.06798459	-0.16169785	-0.14981884	-0.21500492	-0.20966712	0.15727166	0.45533775	1.34396414	-0.00009351	0.00046255	-0.08022966	-0.23161473	-0.31832587	0.82584182	1.48153220	-0.00013359	0.00030875	1.08843950	0.13497553
